<?xml version="1.0" encoding="utf-8"?>

<!DOCTYPE svg PUBLIC "-//W3C//DTD SVG 1.1//EN" "http://www.w3.org/Graphics/SVG/1.1/DTD/svg11.dtd">
<!-- Uploaded to: SVG Repo, www.svgrepo.com, Generator: SVG Repo Mixer Tools -->
<svg height="800px" width="800px" version="1.1" id="_x32_" xmlns="http://www.w3.org/2000/svg" xmlns:xlink="http://www.w3.org/1999/xlink" 
	 viewBox="0 0 512 512"  xml:space="preserve">
<style type="text/css">
	.st0{fill:#000000;}
</style>
<g>
	<path class="st0" d="M392.296,0H119.703C95.293,0.008,75.51,19.783,75.502,44.202v423.597
		c0.008,24.419,19.791,44.193,44.202,44.202h272.593c24.411-0.008,44.194-19.783,44.202-44.202V44.202
		C436.49,19.783,416.707,0.008,392.296,0z M392.296,490.311H119.703c-12.417-0.024-22.488-10.087-22.512-22.512V44.202
		c0.024-12.425,10.096-22.488,22.512-22.512h272.593c12.417,0.024,22.488,10.087,22.513,22.512v423.597
		C414.784,480.224,404.714,490.286,392.296,490.311z"/>
	<path class="st0" d="M257.132,169.206c-0.464-1.018-0.807-1.304-1.132-1.304c-0.277,0.024-0.668,0.286-1.133,1.304
		c-7.113,15.644-33.756,39.011-50.264,60.603c-15.138,19.808-20.956,47.331-2.028,63.57c12.669,10.853,34.09,9.948,46.304-1.606
		c-1.076,18.911-3.781,37.056-9.321,52.326h32.884c-5.541-15.269-8.246-33.414-9.313-52.326
		c12.197,11.554,33.626,12.458,46.287,1.606c18.936-16.239,13.118-43.762-2.021-63.57
		C290.88,208.217,264.246,184.85,257.132,169.206z"/>
	<path class="st0" d="M149.631,57.426l-0.424-0.497l-0.432,0.497c-2.688,5.916-12.751,14.748-18.984,22.912
		c-5.728,7.48-7.928,17.885-0.774,24.012c4.782,4.106,12.881,3.764,17.492-0.602c-0.407,7.145-1.426,14.014-3.519,19.783h12.434
		c-2.103-5.768-3.12-12.638-3.52-19.783c4.612,4.367,12.703,4.709,17.485,0.602c7.154-6.127,4.954-16.532-0.766-24.012
		C162.382,72.173,152.327,63.341,149.631,57.426z"/>
	<path class="st0" d="M363.225,403.382l-0.423-0.489l-0.432,0.489c-2.689,5.923-12.751,14.747-18.993,22.911
		c-5.72,7.488-7.92,17.876-0.766,24.012c4.783,4.098,12.874,3.764,17.494-0.603c-0.407,7.146-1.426,14.014-3.528,19.774h12.433
		c-2.102-5.76-3.112-12.628-3.52-19.774c4.612,4.367,12.711,4.701,17.485,0.603c7.162-6.136,4.962-16.524-0.766-24.012
		C375.977,418.129,365.914,409.305,363.225,403.382z"/>
</g>
</svg>