<?xml version="1.0" encoding="utf-8"?>

<!DOCTYPE svg PUBLIC "-//W3C//DTD SVG 1.1//EN" "http://www.w3.org/Graphics/SVG/1.1/DTD/svg11.dtd">
<!-- Uploaded to: SVG Repo, www.svgrepo.com, Generator: SVG Repo Mixer Tools -->
<svg height="800px" width="800px" version="1.1" id="_x32_" xmlns="http://www.w3.org/2000/svg" xmlns:xlink="http://www.w3.org/1999/xlink" 
	 viewBox="0 0 512 512"  xml:space="preserve">
<style type="text/css">
	.st0{fill:#ffffff;}
</style>
<g>
	<path class="st0" d="M398.321,0H113.678C94.441,0,78.846,15.595,78.846,34.832v442.335c0,19.237,15.595,34.832,34.832,34.832
		h284.643c19.237,0,34.833-15.595,34.833-34.832V34.832C433.154,15.595,417.558,0,398.321,0z M165.562,97.64
		c-4.998,4.288-13.452,3.931-18.268-0.629c0.421,7.461,1.489,14.634,3.676,20.658h-12.98c2.187-6.024,3.255-13.197,3.68-20.658
		c-4.824,4.56-13.272,4.917-18.272,0.629c-7.47-6.398-5.172-17.263,0.804-25.074c6.513-8.525,17.025-17.748,19.833-23.925
		c0.183-0.4,0.336-0.502,0.447-0.519c0.132,0,0.259,0.119,0.442,0.519c2.812,6.177,13.32,15.4,19.833,23.925
		C170.734,80.378,173.032,91.243,165.562,97.64z M311.784,295.032c-13.226,11.333-35.602,10.389-48.34-1.676
		c1.111,19.748,3.935,38.695,9.726,54.64h-34.339c5.785-15.945,8.614-34.892,9.729-54.64c-12.75,12.065-35.118,13.009-48.349,1.676
		c-19.768-16.957-13.693-45.698,2.123-66.382c17.233-22.547,45.056-46.948,52.483-63.284c0.481-1.064,0.89-1.336,1.187-1.362
		c0.34,0,0.693,0.298,1.179,1.362c7.432,16.336,35.241,40.737,52.483,63.284C325.483,249.334,331.557,278.075,311.784,295.032z
		 M388.596,458.9c-4.994,4.28-13.452,3.93-18.267-0.63c0.425,7.462,1.489,14.634,3.68,20.649h-12.98
		c2.187-6.015,3.255-13.187,3.68-20.649c-4.824,4.56-13.272,4.91-18.272,0.63c-7.47-6.407-5.172-17.255,0.804-25.074
		c6.514-8.525,17.025-17.74,19.833-23.924c0.183-0.392,0.332-0.503,0.446-0.51c0.128,0,0.26,0.118,0.442,0.51
		c2.808,6.185,13.32,15.399,19.833,23.924C393.773,441.645,396.071,452.493,388.596,458.9z"/>
</g>
</svg>
